<mxfile host="app.diagrams.net" agent="Mozilla/5.0 (Windows NT 10.0; Win64; x64) AppleWebKit/537.36 (KHTML, like Gecko) Chrome/133.0.0.0 Safari/537.36" version="26.0.16">
  <diagram name="Seite-1" id="0qBJA2OcskKHXjRreBoT">
    <mxGraphModel dx="1888" dy="708" grid="1" gridSize="10" guides="1" tooltips="1" connect="1" arrows="1" fold="1" page="1" pageScale="1" pageWidth="827" pageHeight="1169" math="0" shadow="0">
      <root>
        <mxCell id="0" />
        <mxCell id="1" parent="0" />
        <mxCell id="yR79EcA6VE_aHLL860Jc-4" style="edgeStyle=orthogonalEdgeStyle;rounded=0;orthogonalLoop=1;jettySize=auto;html=1;entryX=0.5;entryY=1;entryDx=0;entryDy=0;" parent="1" source="yR79EcA6VE_aHLL860Jc-2" target="yLwDr2I2qwveIQNhpc3Y-14" edge="1">
          <mxGeometry relative="1" as="geometry" />
        </mxCell>
        <mxCell id="yR79EcA6VE_aHLL860Jc-2" value="&lt;b&gt;Aggregate&lt;/b&gt;" style="rounded=1;whiteSpace=wrap;html=1;" parent="1" vertex="1">
          <mxGeometry x="354" y="1250" width="120" height="60" as="geometry" />
        </mxCell>
        <mxCell id="yR79EcA6VE_aHLL860Jc-3" style="edgeStyle=orthogonalEdgeStyle;rounded=0;orthogonalLoop=1;jettySize=auto;html=1;" parent="1" source="yLwDr2I2qwveIQNhpc3Y-20" target="yR79EcA6VE_aHLL860Jc-2" edge="1">
          <mxGeometry relative="1" as="geometry" />
        </mxCell>
        <mxCell id="yLwDr2I2qwveIQNhpc3Y-20" value="&lt;b&gt;Table Scan&lt;/b&gt;" style="rounded=1;whiteSpace=wrap;html=1;" parent="1" vertex="1">
          <mxGeometry x="354" y="1340" width="120" height="60" as="geometry" />
        </mxCell>
        <mxCell id="yLwDr2I2qwveIQNhpc3Y-12" value="&lt;b&gt;Output&lt;/b&gt;" style="rounded=1;whiteSpace=wrap;html=1;" parent="1" vertex="1">
          <mxGeometry x="354" y="980" width="120" height="60" as="geometry" />
        </mxCell>
        <mxCell id="yLwDr2I2qwveIQNhpc3Y-28" style="edgeStyle=orthogonalEdgeStyle;rounded=0;orthogonalLoop=1;jettySize=auto;html=1;" parent="1" source="yLwDr2I2qwveIQNhpc3Y-13" target="yLwDr2I2qwveIQNhpc3Y-12" edge="1">
          <mxGeometry relative="1" as="geometry" />
        </mxCell>
        <mxCell id="yLwDr2I2qwveIQNhpc3Y-13" value="&lt;b&gt;Aggregate&lt;/b&gt;" style="rounded=1;whiteSpace=wrap;html=1;" parent="1" vertex="1">
          <mxGeometry x="354" y="1070" width="120" height="60" as="geometry" />
        </mxCell>
        <mxCell id="yLwDr2I2qwveIQNhpc3Y-26" style="edgeStyle=orthogonalEdgeStyle;rounded=0;orthogonalLoop=1;jettySize=auto;html=1;entryX=0.5;entryY=1;entryDx=0;entryDy=0;" parent="1" source="yLwDr2I2qwveIQNhpc3Y-14" target="yLwDr2I2qwveIQNhpc3Y-13" edge="1">
          <mxGeometry relative="1" as="geometry" />
        </mxCell>
        <mxCell id="yLwDr2I2qwveIQNhpc3Y-14" value="&lt;b&gt;Local Exchange&lt;/b&gt;" style="rounded=1;whiteSpace=wrap;html=1;" parent="1" vertex="1">
          <mxGeometry x="354" y="1160" width="120" height="60" as="geometry" />
        </mxCell>
        <mxCell id="73e14__1ceovIppsThL4-1" value="&lt;font&gt;Scan of the input dataset.&lt;/font&gt;" style="text;html=1;align=center;verticalAlign=middle;whiteSpace=wrap;rounded=0;" vertex="1" parent="1">
          <mxGeometry x="480" y="1355" width="150" height="30" as="geometry" />
        </mxCell>
        <mxCell id="73e14__1ceovIppsThL4-2" value="&lt;font&gt;First partial aggregation of data, as well as partitioning.&lt;/font&gt;" style="text;html=1;align=center;verticalAlign=middle;whiteSpace=wrap;rounded=0;" vertex="1" parent="1">
          <mxGeometry x="480" y="1265" width="300" height="30" as="geometry" />
        </mxCell>
        <mxCell id="73e14__1ceovIppsThL4-3" value="&lt;font&gt;Exchange of the partitions among the worker nodes.&lt;/font&gt;" style="text;html=1;align=center;verticalAlign=middle;whiteSpace=wrap;rounded=0;" vertex="1" parent="1">
          <mxGeometry x="480" y="1175" width="290" height="30" as="geometry" />
        </mxCell>
        <mxCell id="73e14__1ceovIppsThL4-4" value="&lt;font&gt;Actual aggregation of incoming partitions.&lt;/font&gt;" style="text;html=1;align=center;verticalAlign=middle;whiteSpace=wrap;rounded=0;" vertex="1" parent="1">
          <mxGeometry x="480" y="1085" width="230" height="30" as="geometry" />
        </mxCell>
        <mxCell id="73e14__1ceovIppsThL4-5" value="&lt;font&gt;&amp;nbsp;Output of aggregated data.&lt;/font&gt;" style="text;html=1;align=center;verticalAlign=middle;whiteSpace=wrap;rounded=0;" vertex="1" parent="1">
          <mxGeometry x="480" y="995" width="150" height="30" as="geometry" />
        </mxCell>
      </root>
    </mxGraphModel>
  </diagram>
</mxfile>
